<svg xmlns="http://www.w3.org/2000/svg" viewBox="0 0 90.95 70.89"><title>アセット 1</title><g id="レイヤー_2" data-name="レイヤー 2"><g id="レイヤー_1-2" data-name="レイヤー 1"><path d="M31.14,37.87a5.87,5.87,0,0,1-.58.83A3.51,3.51,0,0,1,27.69,40c-2.55,0-4.1-1.77-4.1-4.65,0-2.71,1.56-4.54,3.89-4.54a3.68,3.68,0,0,1,2.73,1,4.76,4.76,0,0,1,.84,1.15l-.31.18A3.47,3.47,0,0,0,30,32a3.4,3.4,0,0,0-2.52-.89c-2.17,0-3.6,1.67-3.6,4.29s1.43,4.4,3.82,4.4a3.29,3.29,0,0,0,2.67-1.2,5.67,5.67,0,0,0,.55-.84Z"/><path d="M43,39a7.55,7.55,0,0,0,0,.9h-.35a7.55,7.55,0,0,0,0-.9V35.33H36.56V39a7.55,7.55,0,0,0,0,.9h-.35a7.52,7.52,0,0,0,0-.9V31.84a7.52,7.52,0,0,0,0-.9h.35a7.55,7.55,0,0,0,0,.9v3.24h6.16V31.84a7.55,7.55,0,0,0,0-.9H43a7.55,7.55,0,0,0,0,.9Z"/><path d="M54.81,39a9.67,9.67,0,0,0,.38.9h-.38a6.53,6.53,0,0,0-.29-.9l-1-2.67H49.69l-1,2.67a8.65,8.65,0,0,0-.29.9H48a9.67,9.67,0,0,0,.38-.9l2.68-7.15a8.92,8.92,0,0,0,.31-.9h.43a8.92,8.92,0,0,0,.31.9Zm-1.39-2.92-1.81-4.84-1.83,4.84Z"/><path d="M67,39a7.55,7.55,0,0,0,0,.9h-.38a5.84,5.84,0,0,0-.55-.9L61,31.84c-.17-.23-.32-.46-.5-.68V39a7.55,7.55,0,0,0,0,.9h-.35a7.55,7.55,0,0,0,0-.9V31.84a7.55,7.55,0,0,0,0-.9h.53c.18.3.38.6.6.9l5.37,7.58V31.84a7.55,7.55,0,0,0,0-.9H67a7.55,7.55,0,0,0,0,.9Z"/><path d="M79.73,38.43c0,.3,0,.61,0,.9a8.75,8.75,0,0,1-3.33.67c-2.53,0-4-1.74-4-4.65,0-2.7,1.59-4.54,3.93-4.54a3.93,3.93,0,0,1,2.41.68,4.44,4.44,0,0,1,.95.95l-.28.22a3.3,3.3,0,0,0-.83-.94,3.57,3.57,0,0,0-2.27-.66c-2.19,0-3.64,1.69-3.64,4.29,0,2.79,1.37,4.4,3.77,4.4a9.14,9.14,0,0,0,3-.58V36h-2c-.3,0-.54,0-.91,0v-.32c.37,0,.61,0,.91,0h1.38c.3,0,.54,0,.91,0,0,.4,0,.62,0,.91Z"/><path d="M90.05,39.63a7.55,7.55,0,0,0,.9,0v.32a7.55,7.55,0,0,0-.9,0H86.64a8,8,0,0,0-.92,0,7.55,7.55,0,0,0,0-.9V31.82a7.85,7.85,0,0,0,0-.91,7.9,7.9,0,0,0,.92,0h3.23a7.49,7.49,0,0,0,.9,0v.32a7.55,7.55,0,0,0-.9,0H86v4.1h3.43a7.49,7.49,0,0,0,.9,0v.32a7.55,7.55,0,0,0-.9,0H86v4.1Z"/><rect x="14.63" y="25.52" width="0.97" height="19.84"/><rect x="7.32" y="25.52" width="0.97" height="19.84"/><rect y="25.52" width="0.97" height="19.84"/><rect x="29.27" width="0.97" height="19.84"/><rect x="21.95" width="0.97" height="19.84"/><rect x="14.63" width="0.97" height="19.84"/><rect x="29.27" y="51.04" width="0.97" height="19.84"/><rect x="21.95" y="51.04" width="0.97" height="19.84"/><rect x="14.63" y="51.04" width="0.97" height="19.84"/></g></g></svg>